<?xml version="1.0" encoding="utf-8"?>
<!-- Generator: Adobe Illustrator 26.5.0, SVG Export Plug-In . SVG Version: 6.00 Build 0)  -->
<svg version="1.1" id="Layer_2_00000031907733176250949130000016125007068835203467_"
	 xmlns="http://www.w3.org/2000/svg" xmlns:xlink="http://www.w3.org/1999/xlink" x="0px" y="0px" viewBox="0 0 311.5 73.9"
	 style="enable-background:new 0 0 311.5 73.9;" xml:space="preserve">
<style type="text/css">
	.st0{fill:#931A00;}
	.st1{fill-rule:evenodd;clip-rule:evenodd;fill:url(#SVGID_1_);}
	.st2{fill:#FFFFFF;}
</style>
<g>
	<path class="st0" d="M8.1,52.6h9V69c-4.9,0-9-4-9-9V52.6z"/>
	
		<linearGradient id="SVGID_1_" gradientUnits="userSpaceOnUse" x1="8.1059" y1="837.9624" x2="303.3948" y2="837.9624" gradientTransform="matrix(1 0 0 1 0 -805.11)">
		<stop  offset="0" style="stop-color:#CA4900"/>
		<stop  offset="5.000000e-02" style="stop-color:#F05600"/>
		<stop  offset="1" style="stop-color:#FF8F28"/>
	</linearGradient>
	<path class="st1" d="M8.1,60.8v-47c0-4.9,4.8-9,10.8-9h248.5c19.9,0,36,13.4,36,29.8v17.9H18.9C13.3,52.6,8.6,56.2,8.1,60.8
		C8.1,60.8,8.1,60.8,8.1,60.8z"/>
	<path class="st2" d="M45.4,31.9V38c0,0.2,0.2,0.4,0.4,0.4h6.1c0.2,0,0.4-0.2,0.4-0.4c0-0.1,0-0.2-0.1-0.3l-6.1-6.1
		c-0.2-0.2-0.4-0.2-0.6,0C45.4,31.7,45.4,31.8,45.4,31.9z M61.6,18h-3.7c-1.1,0-2.2,0.4-3,1.2l-6.2,6.2c-0.1,0.1-0.2,0.1-0.3,0.1
		h-3.4c-0.4,0-0.8,0.3-0.8,0.8c0,0.2,0.1,0.4,0.2,0.5L57,39.2c0.3,0.3,0.8,0.3,1.1,0c0.1-0.1,0.2-0.3,0.2-0.5v-3.4
		c0-0.1,0-0.2,0.1-0.3l6.1-6.1c0.8-0.8,1.3-1.9,1.3-3v-3.7C65.8,19.9,63.9,18,61.6,18L61.6,18L61.6,18z M58.5,27.7
		c-1.3,0-2.4-1.1-2.4-2.4c0-1.3,1.1-2.4,2.4-2.4l0,0c1.3,0,2.4,1.1,2.4,2.4C60.9,26.6,59.8,27.7,58.5,27.7z"/>
</g>
</svg>
