<svg width="170" height="44" fill="none" xmlns="http://www.w3.org/2000/svg"><path d="M3 32h6v11a6 6 0 0 1-6-6v-5z" fill="#f7863b"/><g filter="url(#a)"><path d="M3 37.5V6a6 6 0 0 1 6-6h138c11.046 0 20 8.954 20 20v12H9a6 6 0 0 0-5.978 5.48L3 37.5Z" clip-rule="evenodd" fill="url(#b)" fill-rule="evenodd"/></g><g clip-path="url(#c)" fill="#fff"><path d="m16.254 22.072 2.88 2.88a.281.281 0 0 0 .397 0l2.88-2.88a.282.282 0 0 0-.2-.48h-5.758a.281.281 0 0 0-.199.48zm1.09-14.266-1.77 1.77a2.813 2.813 0 0 0-.824 1.99v5.846c0 .075-.03.146-.082.199l-1.593 1.593a.509.509 0 0 0 .36.87h11.797a.507.507 0 0 0 .359-.866l-1.593-1.593a.282.282 0 0 1-.083-.198v-5.824a2.88 2.88 0 0 0-.843-2.037l-1.75-1.75a2.812 2.812 0 0 0-3.978 0zm3.134 6.03a1.62 1.62 0 1 1-2.29-2.292 1.62 1.62 0 0 1 2.29 2.292z"/></g><defs><linearGradient id="b" x1="3" x2="167" y1="19" y2="19" gradientUnits="userSpaceOnUse"><stop stop-color="#F9AA75" offset="0"/><stop stop-color="#F9AA75" offset=".047"/><stop stop-color="#F9AA75" offset="1"/></linearGradient><clipPath id="c"><path transform="translate(10.5 7)" fill="#fff" d="M0 0h18v18H0z"/></clipPath><filter id="a" x="0" y="0" width="170" height="43.5" color-interpolation-filters="sRGB" filterUnits="userSpaceOnUse"><feFlood flood-opacity="0" result="BackgroundImageFix"/><feColorMatrix in="SourceAlpha" values="0 0 0 0 0 0 0 0 0 0 0 0 0 0 0 0 0 0 127 0"/><feOffset dy="3"/><feGaussianBlur stdDeviation="1.5"/><feColorMatrix values="0 0 0 0 0 0 0 0 0 0 0 0 0 0 0 0 0 0 0.05 0"/><feBlend in2="BackgroundImageFix" result="effect1_dropShadow"/><feBlend in="SourceGraphic" in2="effect1_dropShadow" result="shape"/></filter></defs></svg>