<svg id="Capa_1" enable-background="new 0 0 512 512" viewBox="0 0 512 512" xmlns="http://www.w3.org/2000/svg">
  <g>
    <path d="m113.547 81.419-7.256 36.278 29.418 5.884 18.588-92.942h-93.297v30h30.645c-22.105 18.56-41.087 40.729-55.916 65.583-23.375 39.174-35.729 83.925-35.729 129.417h30c0-67.636 31.306-131.637 83.547-174.22z" />
    <path d="m476.284 385.025c23.365-39.174 35.716-83.915 35.716-129.386h-30c0 67.634-31.306 131.636-83.547 174.221l7.256-36.279-29.418-5.884-18.588 92.942h93.297v-30h-30.645c22.11-18.567 41.097-40.747 55.929-65.614z" />
    <path d="m81.747 398.085 36.312 7.262 5.883-29.417-92.942-18.588v93.297h30v-30.572c48.286 57.554 119.677 91.933 195 91.933v-30c-67.571 0-131.594-31.447-174.253-83.915z" />
    <path d="m430.188 113.18-36.247-7.249-5.883 29.417 92.942 18.588v-93.297h-30v30.677c-18.565-22.073-40.753-41.014-65.639-55.794-39.126-23.239-83.858-35.522-129.361-35.522v30c67.699 0 131.678 31.166 174.188 83.18z" />
    <path d="m256 211c8.271 0 15 6.729 15 15h30c0-19.555-12.541-36.228-30-42.42v-32.58h-30v32.58c-17.459 6.192-30 22.865-30 42.42 0 24.813 20.187 45 45 45 8.271 0 15 6.729 15 15s-6.729 15-15 15-15-6.729-15-15h-30c0 19.555 12.541 36.228 30 42.42v32.58h30v-32.58c17.459-6.192 30-22.865 30-42.42 0-24.813-20.187-45-45-45-8.271 0-15-6.729-15-15s6.729-15 15-15z" />
    <path d="m421 256c0-90.981-74.019-165-165-165s-165 74.019-165 165 74.019 165 165 165 165-74.019 165-165zm-165 135c-74.439 0-135-60.561-135-135s60.561-135 135-135 135 60.561 135 135-60.561 135-135 135z" />
  </g>
</svg>