<svg xmlns="http://www.w3.org/2000/svg" viewBox="24 52 200 50" style="enable-background:new 24 52 200 50" xml:space="preserve"><circle cx="45.5" cy="77" r="19.4" style="fill:#fff"/><path d="M133.4 66.6v-.4c-.1-1.9-1.7-3.6-3.8-3.6h-17.9c-5.3 0-10.5 3-12.9 8.1h10.3l1-2.1c.4-.9 1.3-1.6 2.3-1.8.2-.1.4-.1.7-.1h8.9c.6 0 1.2.6.8 1.3l-1.7 3.6c-.1.1-.2.2-.2.4-.5.6-1.2 1.1-2 1.3-.2.1-.5.1-.7.1h-11.4c-4.9 0-10.4 2.9-12.3 7l-1.3 2.7c-1.5 3.2.2 6.8 3.2 7.9.6.2 1.3.4 2 .4h23.9L133 68.1c.2-.5.4-1 .4-1.5zm-18.8 18.6c-.5 1.1-1.9 2-2.9 2h-8.8c-.7 0-1.2-.7-.9-1.4l3.2-6.9c.3-.6 1.6-1.4 2.7-1.4h10.2l-3.5 7.7zM99.8 62.6l-13 28c-2.6 5.7-8 8-12.5 8H67l1.9-4.1h2.4c2.4 0 3.9-1.5 4.6-2.9l11.6-24.8h-2.8l1.9-4.1 13.2-.1zm58.5 24.7h1.6l-1.9 4.1h-23.9c-.7 0-1.4-.1-2-.4-3-1.1-4.8-4.7-3.3-7.9l5.7-12.3c2.4-5.2 7.6-8.2 12.9-8.2h17.9c2.1 0 3.8 1.7 3.8 3.6v.4c0 .5-.1 1-.4 1.5l-1.3 2.7H157l1.3-2.8c.3-.5-.1-1.2-.8-1.2h-8.9c-.2 0-.5 0-.7.1-1 .2-1.9.9-2.3 1.8l-8 17.2c-.3.7.2 1.4.9 1.4h19.8zm61.9-24.7h-17.9c-5.3 0-10.5 3-12.9 8.2l-5.7 12.3c-1.5 3.2.2 6.8 3.2 7.9.6.2 1.3.4 2 .4h16.3c4.7 0 9-2.8 10.9-6.9l7.6-16.4c.2-.5.4-1 .4-1.5v-.4c-.2-1.9-1.8-3.6-3.9-3.6zm-6.9 5.4-8.1 17.4c-.4.8-1.7 1.9-2.9 1.9h-8.7c-.7 0-1.2-.7-.9-1.4l8-17.2c.4-.9 1.3-1.6 2.3-1.8.2-.1.4-.1.7-.1h8.9c.6-.1 1 .6.7 1.2zm-37 19.3h2.9l-1.9 4.1h-5.8c-1.5 0-2.9-.6-3.8-1.5-1.8-1.6-2.5-4.3-1.4-6.7l1.4-3 6.3-13.4h-2.8l1.9-4.1h2.8l3.3-7.2h10.4l-3.4 7.2h4.5l-1.9 4.1h-4.4l-8.9 19c-.3.6.2 1.5.8 1.5zM45.5 94.7c-9.8 0-17.7-7.9-17.7-17.7s7.9-17.7 17.7-17.7S63.3 67.2 63.3 77s-8 17.7-17.8 17.7m0-39.2C33.6 55.5 24 65.1 24 77s9.6 21.5 21.5 21.5S67.1 88.9 67.1 77s-9.7-21.5-21.6-21.5"/><path d="M60.1 81c-1 1.8-2.2 2.3-2.7 2.5-.1 0-.2.1-.2.2s-.1.2 0 .2c.1.6.2 1.9-.8 3.6-1.3 2.2-4.1 3.7-7 2-3.1-1.8-3.2-6.9-3.2-9.4 0-.2.1-.3.3-.3.4-.1.9-.4 1.2-.7.1-.1.4-.2.5 0 .7.6 1.5 1.6 1.8 2.1.1.1.3.2.4.1.6-.3 1.2-.4 1.6-.3.1 0 .1 0 .2-.1v-.2c-.2-.3-.5-.8-.5-1.6 0-.2-.1-.3-.3-.3-.6 0-1.8-.2-2.7-.5-.2-.1-.3-.3-.2-.5.1-.5.1-.9 0-1.4 0-.2 0-.3.2-.4 2.1-1.3 6.7-3.7 9.8-2 2.7 1.7 2.8 4.8 1.6 7zm-15.4-1.3c-.4-.1-.9-.4-1.2-.7-.1-.1-.4-.2-.5 0-.7.6-1.5 1.6-1.8 2.1-.1.1-.3.2-.4.1-.6-.3-1.2-.4-1.6-.3-.1 0-.1 0-.2-.1v-.2c.2-.3.5-.8.5-1.6 0-.2.1-.3.3-.3.6 0 1.8-.2 2.7-.5.2-.1.3-.3.2-.5-.1-.5-.1-.9 0-1.4 0-.2 0-.3-.2-.4-2.1-1.3-6.7-3.7-9.8-2-3 1.7-3.1 4.9-1.8 7.1 1 1.8 2.2 2.3 2.7 2.5.1 0 .2.1.2.2s.1.2 0 .2c-.1.6-.2 1.9.8 3.6 1.3 2.2 4.1 3.7 7 2 3.1-1.8 3.2-6.9 3.2-9.4.2-.2.1-.3-.1-.4zm2.6-2.7c0-1-.8-1.7-1.7-1.7-1 0-1.7.8-1.7 1.7 0 1 .8 1.7 1.7 1.7.9 0 1.7-.8 1.7-1.7zm-4.2-2c.1.1.3 0 .4-.1.3-.3.7-.6 1.2-.7.2-.1.3-.2.3-.4-.2-.9-.7-2.1-.9-2.6-.1-.2 0-.3.1-.4.6-.4.9-.9 1.1-1.2 0-.1.1-.1.2-.1s.1 0 .2.1c.2.4.5.9 1.1 1.2.1.1.2.3.1.4-.2.5-.7 1.6-.9 2.6 0 .2.1.4.3.4.5.1.9.4 1.2.7.1.1.3.1.4.1 2.2-1.2 6.6-3.9 6.6-7.5 0-3.4-2.7-5.1-5.2-5.1-2 0-3.1.7-3.5 1.1-.1.1-.1.1-.2.1s-.2 0-.2-.1c-.4-.4-1.5-1.1-3.5-1.1-2.6 0-5.2 1.7-5.2 5.1-.1 3.6 4.3 6.3 6.4 7.5z" style="fill:#0db04b"/></svg>