<?xml version="1.0" encoding="UTF-8"?>
<svg id="Layer_1" data-name="Layer 1" xmlns="http://www.w3.org/2000/svg" viewBox="0 0 975.14 219.5">
    <defs>
        <style>
            .cls-1 {
                fill: #3e4246;
            }

            .cls-1,
            .cls-2 {
                fill-rule: evenodd;
            }

            .cls-1,
            .cls-2,
            .cls-3 {
                stroke-width: 0px;
            }

            .cls-2,
            .cls-3 {
                fill: #f37021;
            }
        </style>
    </defs>
    <g>
        <path class="cls-3"
            d="M184.94,130.64c-5.17,8.95-11.13,11.81-13.97,12.7-.43.13-.78.42-.98.79-.21.36-.29.8-.19,1.25.65,2.91,1.15,9.49-4.02,18.45-6.55,11.33-20.77,18.9-35.95,10.13-15.82-9.14-16.6-35.52-16.31-48.23.02-.83.61-1.49,1.41-1.72,2.28-.67,4.39-1.89,6.14-3.61.72-.72,1.83-.8,2.61-.15,3.76,3.16,7.52,8.21,9.17,10.58.51.73,1.46.87,2.24.44,3.17-1.74,6.17-1.85,8.26-1.59.39.04.72-.15.88-.44.17-.29.17-.67-.06-.98-1.27-1.68-2.67-4.34-2.75-7.94-.02-.89-.62-1.64-1.5-1.72-2.88-.25-9.13-.98-13.75-2.66-.96-.35-1.43-1.35-1.17-2.33.62-2.37.62-4.81.06-7.12-.2-.81.07-1.65.79-2.08,10.87-6.6,34.11-19.11,49.93-9.97,15.19,8.77,15.74,24.87,9.19,36.21ZM106.57,124c-2.28-.67-4.39-1.89-6.14-3.61-.72-.71-1.83-.8-2.61-.15-3.76,3.16-7.52,8.21-9.18,10.58-.51.72-1.46.87-2.24.44-3.17-1.74-6.17-1.86-8.26-1.6-.39.05-.72-.15-.88-.44-.17-.29-.17-.67.06-.99,1.27-1.67,2.67-4.33,2.75-7.94.02-.89.62-1.64,1.5-1.72,2.88-.25,9.13-.97,13.75-2.65.96-.35,1.43-1.35,1.17-2.33-.62-2.37-.61-4.81-.06-7.12.2-.81-.07-1.65-.79-2.08-10.87-6.6-34.1-19.12-49.92-9.99-15.19,8.77-15.74,24.87-9.2,36.2,5.17,8.96,11.12,11.81,13.97,12.7.43.14.78.42.98.79.21.36.29.8.19,1.25-.65,2.91-1.15,9.49,4.01,18.45,6.54,11.34,20.77,18.91,35.95,10.14,15.82-9.13,16.61-35.51,16.33-48.22-.02-.83-.61-1.49-1.41-1.72ZM119.62,109.91c0-4.9-3.97-8.87-8.87-8.87s-8.87,3.97-8.87,8.87c0,4.9,3.97,8.87,8.87,8.87,4.9,0,8.87-3.97,8.87-8.87ZM98.44,99.61c.73.4,1.59.22,2.19-.36,1.72-1.64,3.83-2.86,6.2-3.51.98-.27,1.61-1.18,1.43-2.18-.86-4.84-3.35-10.62-4.57-13.24-.37-.8-.02-1.7.74-2.16,3.09-1.87,4.69-4.42,5.51-6.35.16-.36.49-.55.82-.55s.67.18.82.55c.82,1.94,2.42,4.48,5.51,6.35.76.46,1.11,1.36.73,2.16-1.22,2.62-3.72,8.39-4.58,13.24-.18,1,.45,1.91,1.43,2.19,2.36.65,4.47,1.87,6.2,3.51.6.57,1.46.76,2.19.36,11.15-6.11,33.61-19.97,33.61-38.24,0-17.54-13.66-26.07-26.75-26.07-10.34,0-15.79,3.73-17.98,5.75-.34.31-.75.46-1.17.46-.42,0-.83-.15-1.17-.46-2.19-2.02-7.64-5.75-17.98-5.75-13.09,0-26.76,8.53-26.76,26.06,0,18.27,22.45,32.13,33.6,38.25Z" />
        <path class="cls-2"
            d="M110.75,0C49.58,0,0,49.14,0,109.75s49.58,109.75,110.75,109.75,110.75-49.14,110.75-109.75S171.91,0,110.75,0M110.75,200.04c-50.28,0-91.05-40.41-91.05-90.23S60.47,19.58,110.75,19.58s91.05,40.41,91.05,90.23-40.77,90.23-91.05,90.23" />
    </g>
    <path class="cls-1"
        d="M900.31,152.2c37.06,0,40.05-30.61,40.05-44.06v-4.18c0-13.78-3.88-43.69-40.05-43.69-34.09,0-40.24,27.08-40.24,43.69v4.18c0,14.93,4.92,44.06,40.24,44.06ZM900.31,179.46c-62.86,0-74.83-41.29-74.83-72.06v-2.46c0-17.85,3.75-72.06,74.64-72.06,64.01,0,75.01,42.59,75.01,72.06v2.46c0,51.11-30.93,72.06-74.82,72.06Z" />
    <path class="cls-1"
        d="M286.3,35.38l-.69,18.16c-.19,4.88,3.8,9.02,8.72,9.02h27.36v58.48c0,16.7-5.77,24.41-13.52,29.15-13.63,8.33-50.29-.68-50.29-.68l-1.93,25.63s42.27,10.29,70.92-.99c17.02-6.7,29.16-21.85,29.16-52.43V35.38h-69.73Z" />
    <path class="cls-1"
        d="M426.03,121.84l19.33-59.63h.38l19.2,59.63c-12.93-2.24-26.17-2.24-38.97,0h.06ZM466.56,35.28h-36.32c-3.51,0-6.65,2.18-7.84,5.41l-51.88,136.46h37.2l9.72-29.22c17.69-6.03,38.79-6.08,56.46.06l9.79,29.16h36.95l-53.95-141.87h-.13Z" />
    <path class="cls-1"
        d="M647.19,135.17c-3.97-2.03-8.74-.68-11.22,2.95-.65.95-7.8,14.13-33.6,14.13-32.76,0-39.3-25.67-39.3-44.11,0,0-5-47.92,39.49-47.92,24.52,0,32.92,15.3,32.92,15.3,2.48,3.69,7.25,5.1,11.22,3.13l22.44-11.18c-6.82-13.7-14.47-20.29-29.22-27.35-15.1-7.23-49.35-12.99-77.9,1.06-37.65,18.52-33.6,66.22-33.6,66.22,0,26.5,8.42,51.33,33.79,63.83,21.94,10.81,56.68,11,78.23,1.04,13.78-6.37,23.5-15.55,28.33-26.11l-21.7-11.06.12.06Z" />
    <polygon class="cls-1"
        points="732.84 177.15 732.84 63.97 686.07 63.97 686.07 35.28 813.77 35.28 813.77 63.97 767.37 63.97 767.37 177.15 732.9 177.15 732.84 177.15" />
</svg>