<?xml version="1.0" encoding="UTF-8"?><svg id="Layer_2" xmlns="http://www.w3.org/2000/svg" viewBox="0 0 2189.2 575.43"><defs><style>.cls-1{fill:#fff;}.cls-2{fill:#f58220;}.cls-2,.cls-3,.cls-4{fill-rule:evenodd;}.cls-3{fill:#00a651;}.cls-4{fill:#ffcb05;}</style></defs><g id="Layer_1-2"><g><path class="cls-4" d="M144.12,34.45c44.42,0,80.42,35.41,80.39,79.05-.03,43.65-36.09,79.04-80.51,79.04-44.41,0-80.42-35.41-80.38-79.06,.03-43.64,36.09-79.03,80.5-79.03"/><path class="cls-2" d="M237.52,52.13l-17.55,19.75c-5.07-8.9-11.7-16.8-19.55-23.37,12-.82,24.5,.47,37.1,3.62"/><path class="cls-2" d="M231.84,187.27l-25.76-14.05c7.56-7.58,13.7-16.52,17.98-26.43,4.98,12.53,7.5,26.22,7.78,40.49"/><path class="cls-2" d="M33.46,87.77l28.04-.85c-2.62,8.13-4.3,21.15-4.31,26.56,0,5.41,.06,3.65,.18,5.46v.02l.04,.56h0s0,.11,0,.11h0c.76,10.59,5.12,23.95,9.46,33.12-12.19-4.06-25.52-13.88-36.47-22.41l26.93-11.89c-9.02-8.54-17.73-18.79-23.87-30.69"/><path class="cls-2" d="M110.68,229.14l.68-30.71c-11.81,5.13-24.98,8.14-38.98,9.13l11.05-25.78c-13.07,.36-26.57-1.83-40.05-6.26l23.49-22.76c5.9,11.19,14.25,20.9,24.35,28.5h-.01c7.5,5.66,15.97,10.13,25.12,13.15l.39,.13,.23,.08,.18,.06,.09,.03,.66,.21,.11,.03c8.21,2.53,16.94,3.9,26,3.9l1.32-.02,4.57,.72c-10,12.21-23.41,22.12-39.21,29.58"/><path class="cls-2" d="M126.67,0l12.15,25.95c9.03-9.81,20.43-18.05,33.5-24.58l.06,28.22c12.62-4.65,26.62-6.8,41.29-6.69l-13.37,25.49c-8.15-6.8-17.59-12.16-27.92-15.65v.02c-8.86-3-18.36-4.62-28.25-4.62-1.42,0-2.84,.03-4.24,.1h-.22s-.03,.01-.03,.01h-.23s-.09,.01-.09,.01h-.08s-.16,.01-.16,.01h-.06s-.18,.01-.18,.01h-.08s-.62,.04-.62,.04h-.15s-.04,.01-.04,.01h-.19s-.12,.02-.12,.02h0s-1.04,.1-1.04,.1l.02-.02c-9.82,.84-19.16,3.26-27.78,7.03l-.18,.07-.35,.16-.1,.05-.43,.19h0s-.87,.41-.87,.41l-.18,.08-.26,.13c-10.43,4.93-19.71,11.86-27.32,20.27h0c-7.83,8.63-13.91,18.85-17.66,30.1-5.51-13.13-8.03-27.87-7.89-43.39l25.87,10.48c-2.13-14.03-1.4-26.53,2.52-41.61l25.29,21.72c4.13-11.93,10.73-23.39,19.39-34.12"/><path class="cls-3" d="M493.56,543.97v11.77s-471.66-.06-471.66-.06v-11.77s471.66,.06,471.66,.06ZM21.95,498.66l191.39,.02c2.01-165.49-75.78-149.8-213.33-153.88,26.67-28.73,38.78-38.67,72.02-41.42,51.85-4.28,127.46,12.82,177.15,33.3l1.44-66.13c-15.47,1.63-56.22-2.8-87.98-28.07-38.63-30.73-49.32-80.67-45.77-84.99,3.56-4.32,55.51-4.41,94.13,26.31,24.75,19.69,38.02,47.28,43.43,65.69l5.65,1.02c5.25-18.4,18.61-46.65,43.85-66.71,38.69-30.71,90.64-30.58,94.17-26.27,3.56,4.31-7.22,54.26-45.88,85-34.18,27.13-78.7,30.2-91.07,27.56-.22,83.79-1.59,100.12-8.4,189.68,31.19-29.58,54.59-43.65,90.78-64.99,10.71-6.3,11.07-9.5,12.52-22.29,2.45-21.53-2.13-25.03-28.29-14.07-3.09,1.29-7.37-6.2-5.05-8.59l33.63-34.79c11.95-12.37,30.22-16.15,47.98-11.96,26.61,6.28,15.46,49.35-8,73.56-11.81,12.18-39.67,25.91-56.87,43.41-30.19,30.71-67.28,63.58-94,78.64l248.15,.03-.02,32.58-471.65-.06,.03-32.58ZM260.18,23.79c7.89,0,53.56,39.62,53.53,88.47-.04,48.85-45.78,88.45-53.66,88.45-7.88,0-53.56-39.62-53.52-88.47,.04-48.85,45.77-88.45,53.66-88.45Z"/><path class="cls-1" d="M1834.42,401.79h44.17s-21.18-68.4-21.18-68.4l-22.99,68.4Zm62.15-105.62l49.94,154.85h-52.45s-10.63-33.67-10.63-33.67h-54.15s-11.5,33.65-11.5,33.65h-20.42s53.37-154.84,53.37-154.84h45.83Zm-166.69-.02l-.11,139.29h73.95s-.01,15.56-.01,15.56l-126.03-.02,.12-154.84h52.09Zm-155.32,9.74c-9.85,0-16.56,4.68-20.03,14-3.47,9.32-5.24,27.2-5.26,53.66-.02,26.47,1.72,44.34,5.18,53.67,3.46,9.32,10.15,14.01,20,14.01,9.85,0,16.56-4.68,20.03-14,3.47-9.32,5.24-27.2,5.26-53.66,.02-26.39-1.72-44.26-5.18-53.63-3.46-9.36-10.15-14.05-20-14.05Zm1.45-12.3c52.4,0,78.56,26.67,78.52,79.99-.04,53.32-26.73,79.97-80.08,79.97-53.34,0-80-27.29-79.95-81.8,.04-52.12,27.23-78.15,81.52-78.15Zm-116.12,95.28l22.26,4.99c.45,3.91,.67,7.31,.67,10.18-.01,15.05-6.36,27.04-19.01,36.02-12.69,8.97-29.7,13.46-50.97,13.46-53.39,0-80.09-25.82-80.05-77.39,.02-24.45,7.82-44.3,23.39-59.5,15.57-15.2,35.82-22.82,60.78-22.82,38.95,0,58.42,16.1,58.39,48.29l-22.41,8.82c.32-4.53,.5-8.05,.5-10.56,.02-22.83-10.63-34.24-31.95-34.25-22.58,0-33.89,24.22-33.93,72.66-.03,41.63,12.55,62.45,37.78,62.45,10.44,0,19.07-3.56,26.01-10.64,6.93-7.12,10.4-15.98,10.41-26.62,0-3.41-.62-8.43-1.88-15.09Zm-193.24-105.07h-11.33s18.73-30.18,18.73-30.18h37.83s-45.23,30.18-45.23,30.18Zm31.97,12.31l-.12,154.84h-52.09s.12-154.85,.12-154.85h52.09Zm-168.68,67.77h10.53c19.79,0,29.69-8.89,29.71-26.69,.01-17.8-9.87-26.7-29.67-26.7h-10.53s-.04,53.39-.04,53.39Zm-52.15,87.05l.12-154.84h77.27c20.11,.01,36.21,3.65,48.21,10.97,12.05,7.31,18.07,17.1,18.06,29.41-.01,18.77-12.93,31.03-38.8,36.67,13.27,4.26,21.85,8.9,25.76,13.93,3.91,5.07,6.56,14.9,7.94,29.45,1.65,17.37,5.02,28.86,10.09,34.44h-56.63c-3.59-7.17-5.38-16.14-5.38-26.86l-.26-9.17-.26-11.53c.01-17.84-8.35-26.74-25.03-26.74h-8.95s-.06,74.29-.06,74.29h-52.09Zm-99.88-83.59h74.22s-.06,83.58-.06,83.58h-16.6s-5.66-10.64-5.66-10.64c-14.49,8.78-29.83,13.19-46.02,13.19-26.67,0-47.36-6.85-62.1-20.59-14.7-13.7-22.06-33.05-22.04-57.96,.02-24.26,7.86-43.91,23.48-58.89,15.62-15.01,36.05-22.51,61.28-22.51,33.24,0,53.47,14.63,60.64,43.88l-24.48,9.59v-3.75s-.4-8.36-.4-8.36c-1.65-18.3-11.49-27.43-29.44-27.44-13.22,0-22.27,4.83-27.09,14.51-4.87,9.67-7.31,27.7-7.33,54.09-.02,24.65,1.95,41.4,5.85,50.22,3.91,8.86,11.37,13.27,22.43,13.27,12.95,0,19.44-6.19,19.45-18.57l.03-38.07h-26.18s.01-15.56,.01-15.56Zm-196.54,34.33h44.17s-21.18-68.4-21.18-68.4l-22.99,68.4Zm62.15-105.62l49.94,154.85h-52.45s-10.63-33.67-10.63-33.67h-54.15s-11.5,33.65-11.5,33.65h-20.42s53.37-154.84,53.37-154.84h45.83ZM2181.73,74.16l-24.25,3.87c1.04-4.18,1.54-7.66,1.54-10.49,.01-18.07-12.66-27.09-37.99-27.09-20.02,0-30.01,6.19-30.02,18.61,0,9.29,11.19,17.26,33.54,23.92,43.12,12.77,64.66,31.7,64.64,56.73-.01,14.66-6.09,26.43-18.2,35.32-12.15,8.86-28.26,13.31-48.36,13.3-44.53,0-66.78-14.83-66.76-44.5,0-2.4,.27-5.38,.77-8.94l25.15-4.76c-1.98,6.58-2.98,12.27-2.98,17.1-.02,19.19,12.75,28.79,38.34,28.79,20.47,0,30.73-6.92,30.74-20.73,0-10.29-12.22-19.35-36.73-27.13-35.39-11.19-53.1-29.06-53.08-53.63,.01-13.93,5.91-25.11,17.75-33.62s27.36-12.76,46.61-12.76c39.54,0,59.32,15.33,59.29,46.01Zm-220.64-33.73c-9.85,0-16.56,4.68-20.03,14-3.47,9.32-5.24,27.2-5.26,53.66-.02,26.47,1.72,44.34,5.18,53.67,3.46,9.33,10.15,14.01,20,14.01,9.85,0,16.56-4.68,20.03-14,3.47-9.32,5.24-27.2,5.26-53.66,.02-26.39-1.72-44.26-5.18-53.63-3.46-9.36-10.15-14.05-20-14.05Zm1.45-12.3c52.4,0,78.56,26.67,78.52,79.99-.04,53.32-26.73,79.97-80.08,79.97-53.34,0-80-27.29-79.95-81.8,.04-52.12,27.23-78.15,81.52-78.15Zm-158.46,2.53l-.11,139.29h73.95s-.01,15.56-.01,15.56l-126.03-.02,.12-154.84h52.09Zm-79.52,0v15.55s-64.51,0-64.51,0l-.04,46.89h54.24s-.01,15.56-.01,15.56h-54.24s-.05,61.28-.05,61.28h75.56s-.01,15.56-.01,15.56l-127.65-.02,.12-154.84,116.59,.02Zm-159.07,92.72l22.26,4.99c.45,3.91,.67,7.31,.67,10.18-.01,15.05-6.36,27.04-19.01,36.02-12.69,8.97-29.7,13.46-50.97,13.46-53.39,0-80.09-25.82-80.05-77.39,.02-24.45,7.82-44.3,23.39-59.5,15.57-15.2,35.82-22.82,60.78-22.82,38.95,0,58.42,16.1,58.39,48.3l-22.41,8.82c.32-4.53,.5-8.05,.5-10.56,.02-22.83-10.63-34.24-31.95-34.25-22.58,0-33.89,24.22-33.93,72.66-.03,41.63,12.55,62.45,37.78,62.45,10.44,0,19.07-3.56,26.01-10.64,6.93-7.12,10.4-15.98,10.41-26.62,0-3.4-.62-8.43-1.88-15.09Zm-149.08-92.76l-.12,154.84h-39.94s-74.95-97.91-74.95-97.91l-.08,97.89h-17.54s.12-154.85,.12-154.85h33.06s81.82,105.91,81.82,105.91l.08-105.9h17.54Zm-234.66,9.72c-9.85,0-16.56,4.68-20.03,14-3.47,9.32-5.24,27.2-5.26,53.66-.02,26.47,1.72,44.34,5.18,53.67,3.46,9.33,10.15,14.01,20,14.01,9.85,0,16.56-4.68,20.03-14,3.47-9.32,5.24-27.2,5.26-53.66,.02-26.39-1.72-44.26-5.18-53.63-3.46-9.36-10.15-14.05-20-14.05Zm1.45-12.3c52.4,0,78.56,26.67,78.52,79.99-.04,53.32-26.73,79.97-80.08,79.97-53.34,0-80-27.29-79.95-81.8,.04-52.12,27.23-78.15,81.52-78.15Zm-116.12,95.28l22.26,4.99c.45,3.91,.67,7.31,.67,10.18-.01,15.05-6.36,27.04-19.01,36.02-12.69,8.97-29.7,13.46-50.97,13.46-53.39,0-80.09-25.82-80.05-77.39,.02-24.45,7.82-44.3,23.39-59.5,15.57-15.2,35.82-22.82,60.78-22.82,38.95,0,58.42,16.1,58.39,48.29l-22.41,8.82c.32-4.53,.5-8.05,.5-10.56,.02-22.83-10.63-34.24-31.95-34.25-22.58,0-33.89,24.22-33.93,72.66-.03,41.63,12.55,62.45,37.78,62.45,10.44,0,19.07-3.56,26.01-10.64,6.93-7.12,10.4-15.98,10.41-26.62,0-3.4-.62-8.43-1.88-15.09Zm-149.65-49.31l-24.25,3.87c1.04-4.18,1.54-7.66,1.54-10.49,.01-18.07-12.66-27.09-37.99-27.09-20.02,0-30.01,6.19-30.02,18.61,0,9.29,11.19,17.26,33.54,23.92,43.12,12.77,64.66,31.7,64.64,56.73-.01,14.66-6.09,26.43-18.2,35.32-12.15,8.86-28.26,13.31-48.36,13.3-44.53,0-66.78-14.83-66.76-44.5,0-2.4,.27-5.38,.77-8.94l25.15-4.76c-1.98,6.58-2.98,12.27-2.98,17.1-.01,19.19,12.75,28.79,38.34,28.79,20.47,0,30.73-6.92,30.74-20.73,0-10.29-12.22-19.35-36.73-27.13-35.39-11.19-53.1-29.06-53.08-53.63,.01-13.93,5.91-25.11,17.75-33.62,11.84-8.51,27.36-12.76,46.61-12.76,39.54,0,59.32,15.33,59.29,46.01Zm-243.83,62.15h44.17s-21.18-68.4-21.18-68.4l-22.99,68.4Zm62.15-105.62l49.94,154.85h-52.45s-10.63-33.67-10.63-33.67h-54.15s-11.5,33.65-11.5,33.65h-20.42s53.38-154.84,53.38-154.84h45.83Zm-95.4,0l-52.34,154.84h-46.78S493.66,30.48,493.66,30.48h52.72s35.49,117.36,35.49,117.36l38.95-117.35h19.52Z"/><g><path class="cls-1" d="M838.75,541.26h-31.86l-6.59,14.99h-8.82l27.15-59.94h8.48l27.23,59.94h-8.99l-6.59-14.99Zm-3-6.85l-12.93-29.37-12.93,29.37h25.86Z"/><path class="cls-1" d="M885.76,506.92v3.94h13.19v6.76h-13.02v38.62h-8.22v-38.62h-7.71v-6.76h7.71v-4.03c0-8.82,5.31-14.64,14.99-14.64,3.51,0,6.94,.86,9.25,2.65l-2.48,6.25c-1.71-1.28-3.94-2.14-6.34-2.14-4.88,0-7.36,2.74-7.36,7.96Z"/><path class="cls-1" d="M897.58,533.55c0-13.53,10.02-23.12,23.63-23.12s23.55,9.59,23.55,23.12-9.93,23.21-23.55,23.21-23.63-9.68-23.63-23.21Zm38.88,0c0-9.68-6.51-15.93-15.24-15.93s-15.33,6.25-15.33,15.93,6.59,16.01,15.33,16.01,15.24-6.34,15.24-16.01Z"/><path class="cls-1" d="M976.28,510.43v7.96c-.69-.09-1.28-.09-1.88-.09-8.82,0-14.3,5.4-14.3,15.33v22.61h-8.22v-45.38h7.88v7.62c2.91-5.31,8.56-8.05,16.53-8.05Z"/><path class="cls-1" d="M1013.7,543.06l6.25,3.94c-3.6,6.34-10.28,9.76-18.33,9.76l-1.03,3.77c4.97,.51,7.45,3.34,7.45,7.11,0,4.8-4.2,7.79-10.62,7.79-3,0-5.48-.6-7.62-1.88l1.8-4.2c1.8,1.03,3.68,1.46,5.82,1.46,3.25,0,4.8-1.28,4.8-3.43,0-1.97-1.46-3.34-4.88-3.34h-2.31l1.97-7.62c-11.56-1.88-19.52-10.79-19.52-22.86,0-13.53,10.02-23.12,23.98-23.12,8.13,0,14.9,3.34,18.5,9.68l-6.25,4.02c-2.91-4.45-7.36-6.51-12.33-6.51-8.91,0-15.58,6.25-15.58,15.93s6.68,16.01,15.58,16.01c4.97,0,9.42-2.05,12.33-6.51Z"/><path class="cls-1" d="M1062.26,528.84v27.4h-7.79v-5.99c-2.74,4.11-7.79,6.51-14.9,6.51-10.28,0-16.78-5.48-16.78-13.36,0-7.28,4.71-13.27,18.24-13.27h13.02v-1.63c0-6.94-4.02-10.96-12.16-10.96-5.39,0-10.88,1.88-14.39,4.88l-3.43-6.17c4.71-3.77,11.48-5.82,18.75-5.82,12.42,0,19.44,5.99,19.44,18.41Zm-8.22,13.53v-6.34h-12.67c-8.14,0-10.45,3.17-10.45,7.02,0,4.54,3.77,7.36,10.02,7.36s11.05-2.83,13.1-8.05Z"/><path class="cls-1" d="M1134.79,510.86v62h-8.22v-23.46c-3.77,4.88-9.42,7.36-15.84,7.36-13.27,0-22.95-9.25-22.95-23.21s9.68-23.12,22.95-23.12c6.68,0,12.5,2.57,16.18,7.62v-7.19h7.88Zm-8.13,22.69c0-9.59-6.59-15.93-15.24-15.93s-15.33,6.34-15.33,15.93,6.59,16.01,15.33,16.01,15.24-6.34,15.24-16.01Z"/><path class="cls-1" d="M1188.4,510.86v45.38h-7.79v-6.85c-3.34,4.71-8.99,7.36-15.41,7.36-11.73,0-19.52-6.42-19.52-19.78v-26.12h8.22v25.18c0,8.91,4.45,13.36,12.25,13.36,8.56,0,14.04-5.31,14.04-15.07v-23.46h8.22Z"/><path class="cls-1" d="M1240.64,536.29h-36.82c1.03,7.96,7.45,13.27,16.44,13.27,5.31,0,9.76-1.8,13.1-5.48l4.54,5.31c-4.11,4.8-10.36,7.36-17.9,7.36-14.64,0-24.41-9.68-24.41-23.21s9.68-23.12,22.78-23.12,22.44,9.42,22.44,23.38c0,.68-.09,1.71-.17,2.48Zm-36.82-5.91h29.12c-.86-7.62-6.59-13.02-14.56-13.02s-13.7,5.31-14.56,13.02Z"/><path class="cls-1" d="M1306.84,510.86l-19.87,45.38h-8.39l-19.87-45.38h8.56l15.58,36.39,15.93-36.39h8.05Z"/><path class="cls-1" d="M1349.83,536.29h-36.82c1.03,7.96,7.45,13.27,16.44,13.27,5.31,0,9.76-1.8,13.1-5.48l4.54,5.31c-4.11,4.8-10.36,7.36-17.9,7.36-14.64,0-24.41-9.68-24.41-23.21s9.68-23.12,22.78-23.12,22.44,9.42,22.44,23.38c0,.68-.09,1.71-.17,2.48Zm-36.82-5.91h29.12c-.86-7.62-6.59-13.02-14.56-13.02s-13.7,5.31-14.56,13.02Z"/><path class="cls-1" d="M1432.47,530.13v26.12h-8.22v-25.18c0-8.91-4.28-13.27-11.73-13.27-8.22,0-13.62,5.22-13.62,15.07v23.38h-8.22v-25.18c0-8.91-4.28-13.27-11.73-13.27-8.22,0-13.62,5.22-13.62,15.07v23.38h-8.22v-45.38h7.88v6.76c3.25-4.62,8.82-7.19,15.67-7.19s12.76,2.74,15.76,8.39c3.43-5.14,9.76-8.39,17.47-8.39,11.05,0,18.58,6.34,18.58,19.7Z"/><path class="cls-1" d="M1504.92,492.71v63.54h-7.88v-7.19c-3.68,5.14-9.5,7.71-16.18,7.71-13.27,0-22.95-9.33-22.95-23.21s9.68-23.12,22.95-23.12c6.42,0,12.07,2.4,15.84,7.28v-25h8.22Zm-8.13,40.85c0-9.68-6.59-15.93-15.24-15.93s-15.33,6.25-15.33,15.93,6.59,16.01,15.33,16.01,15.24-6.34,15.24-16.01Z"/><path class="cls-1" d="M1512.03,533.55c0-13.53,10.02-23.12,23.63-23.12s23.55,9.59,23.55,23.12-9.93,23.21-23.55,23.21-23.63-9.68-23.63-23.21Zm38.88,0c0-9.68-6.51-15.93-15.24-15.93s-15.33,6.25-15.33,15.93,6.59,16.01,15.33,16.01,15.24-6.34,15.24-16.01Z"/><path class="cls-1" d="M1580.88,533.55c0-13.53,10.02-23.12,23.98-23.12,8.14,0,14.9,3.34,18.5,9.68l-6.25,4.02c-2.91-4.45-7.36-6.51-12.33-6.51-8.91,0-15.58,6.25-15.58,15.93s6.68,16.01,15.58,16.01c4.97,0,9.42-2.05,12.33-6.51l6.25,3.94c-3.6,6.34-10.36,9.76-18.5,9.76-13.96,0-23.98-9.68-23.98-23.21Z"/><path class="cls-1" d="M1665.66,528.84v27.4h-7.79v-5.99c-2.74,4.11-7.79,6.51-14.9,6.51-10.28,0-16.78-5.48-16.78-13.36,0-7.28,4.71-13.27,18.24-13.27h13.02v-1.63c0-6.94-4.02-10.96-12.16-10.96-5.4,0-10.88,1.88-14.39,4.88l-3.42-6.17c4.71-3.77,11.47-5.82,18.75-5.82,12.42,0,19.44,5.99,19.44,18.41Zm-8.22,13.53v-6.34h-12.67c-8.14,0-10.45,3.17-10.45,7.02,0,4.54,3.77,7.36,10.02,7.36s11.05-2.83,13.1-8.05Z"/><path class="cls-1" d="M1751.98,530.13v26.12h-8.22v-25.18c0-8.91-4.28-13.27-11.73-13.27-8.22,0-13.62,5.22-13.62,15.07v23.38h-8.22v-25.18c0-8.91-4.28-13.27-11.73-13.27-8.22,0-13.62,5.22-13.62,15.07v23.38h-8.22v-45.38h7.88v6.76c3.25-4.62,8.82-7.19,15.67-7.19s12.76,2.74,15.76,8.39c3.43-5.14,9.76-8.39,17.47-8.39,11.05,0,18.58,6.34,18.58,19.7Z"/><path class="cls-1" d="M1809.87,533.55c0,13.96-9.68,23.21-22.95,23.21-6.42,0-12.07-2.48-15.84-7.36v23.46h-8.22v-62h7.88v7.19c3.68-5.05,9.5-7.62,16.18-7.62,13.27,0,22.95,9.25,22.95,23.12Zm-8.31,0c0-9.59-6.59-15.93-15.33-15.93s-15.24,6.34-15.24,15.93,6.59,16.01,15.24,16.01,15.33-6.34,15.33-16.01Z"/><path class="cls-1" d="M1812.78,533.55c0-13.53,10.02-23.12,23.63-23.12s23.55,9.59,23.55,23.12-9.93,23.21-23.55,23.21-23.63-9.68-23.63-23.21Zm38.88,0c0-9.68-6.51-15.93-15.24-15.93s-15.33,6.25-15.33,15.93,6.59,16.01,15.33,16.01,15.24-6.34,15.24-16.01Z"/></g></g></g></svg>