<?xml version="1.0" encoding="UTF-8"?>
<svg id="Layer_2" data-name="Layer 2" xmlns="http://www.w3.org/2000/svg" viewBox="0 0 470 480.34">
  <g id="Layer_1-2" data-name="Layer 1">
    <path d="M415.4,203.77v-23.37C415.4,80.93,334.47,0,235,0S54.6,80.93,54.6,180.4v23.37C23.96,206.98,0,232.95,0,264.43v40.44c0,33.63,27.36,60.99,60.99,60.99h39.52c11.86,0,21.47-9.61,21.47-21.47v-119.48c0-11.86-9.61-21.47-21.47-21.47h-2.96v-23.03c0-75.79,61.66-137.46,137.46-137.46s137.45,61.66,137.45,137.46v23.03h-2.96c-11.86,0-21.47,9.61-21.47,21.47v119.48c0,10.91,8.14,19.9,18.68,21.27-15.16,26.11-59.14,49.99-118.34,53.72-.73-11.2-10.02-20.06-21.4-20.06s-21.47,9.61-21.47,21.47v38.08c0,11.86,9.61,21.47,21.47,21.47,10.66,0,19.48-7.77,21.16-17.95,40.88-2.2,79.18-12.83,109.2-30.52,29.93-17.64,49.1-40.64,55.6-66.15,31.81-2.03,57.08-28.54,57.08-60.85v-40.44c0-31.47-23.96-57.45-54.6-60.65h0ZM79.04,322.91h-18.05c-9.95,0-18.05-8.1-18.05-18.05v-40.44c0-9.95,8.1-18.05,18.05-18.05h18.05v76.53h0Zm348.02-18.05c0,9.95-8.1,18.05-18.05,18.05h-18.05v-76.53h18.05c9.95,0,18.05,8.1,18.05,18.05v40.44Z"/>
  </g>
</svg>