<svg id="Capa_1" enable-background="new 0 0 512 512" viewBox="0 0 512 512" xmlns="http://www.w3.org/2000/svg"><g><g id="Layer_x0020_1_20_"><path d="m311.677 22.988 163.416 163.416v.053c20.977 20.99 26.524 37.775 21.884 51.313-4.903 14.314-19.518 21.805-38.813 25.183l-2.642.237h-4.219v214.86c0 9.319-3.825 17.783-9.963 23.935v.053c-6.138 6.151-14.629 9.963-23.987 9.963h-117.834v-179.452h-87.051v179.451h-117.82c-9.358 0-17.849-3.812-23.987-9.963v-.053c-6.138-6.151-9.963-14.616-9.963-23.935v-214.859h-4.219l-2.642-.237c-19.282-3.378-33.911-10.87-38.813-25.183-4.64-13.538.907-30.323 21.884-51.313v-.053l163.415-163.416c15.326-15.325 35.515-22.988 55.677-22.988s40.351 7.663 55.677 22.988zm141.636 185.195-.026.026-163.416-163.415c-9.306-9.293-21.582-13.945-33.871-13.945s-24.566 4.653-33.871 13.945l-163.416 163.415-.026-.026c-11.304 11.304-15.326 17.31-14.498 19.716.526 1.525 5.81 3.023 13.591 4.456h33.766v245.695c0 .867.342 1.643.894 2.208l.026-.026c.565.565 1.341.92 2.182.92h86.985v-151.021c0-7.834 3.194-14.944 8.333-20.084h.053c5.152-5.152 12.25-8.346 20.031-8.346h91.888c7.834 0 14.958 3.207 20.097 8.346s8.333 12.25 8.333 20.084v151.021h86.985c.841 0 1.617-.355 2.182-.92l.026.026c.552-.565.894-1.341.894-2.208v-245.696h33.766c7.781-1.433 13.065-2.931 13.591-4.456.827-2.405-3.195-8.411-14.499-19.715z"/></g></g></svg>