<svg id="Capa_1" enable-background="new 0 0 509.738 509.738"  viewBox="0 0 509.738 509.738" xmlns="http://www.w3.org/2000/svg"><g id="XMLID_1_"><path id="XMLID_290_" d="m165.182 402.647 237.464-237.464c28.37 7.996 60.11.85 82.435-21.475 24.879-24.879 30.932-61.455 18.152-92.021l-55.086 55.086-45.182-45.182 55.086-55.086c-30.566-12.78-67.142-6.727-92.021 18.152-22.62 22.62-29.675 54.909-21.167 83.561l-236.645 236.645c-28.653-8.507-60.942-1.453-83.561 21.167-24.879 24.879-30.932 61.455-18.152 92.021l55.086-55.086 45.182 45.182-55.086 55.086c30.566 12.78 67.142 6.727 92.021-18.152 22.324-22.324 29.47-54.064 21.474-82.434z"/></g></svg>