<?xml version="1.0" encoding="iso-8859-1"?>
<!-- Generator: Adobe Illustrator 19.0.0, SVG Export Plug-In . SVG Version: 6.00 Build 0)  -->
<svg version="1.1" id="Capa_1" xmlns="http://www.w3.org/2000/svg" xmlns:xlink="http://www.w3.org/1999/xlink" x="0px" y="0px"
	 viewBox="0 0 481.74 481.74" style="enable-background:new 0 0 481.74 481.74;" xml:space="preserve">
<g>
	<g>
		<rect x="15.16" y="349.751" transform="matrix(0.7071 -0.7071 0.7071 0.7071 -223.6789 175.4942)" width="169.681" height="16"/>
	</g>
</g>
<g>
	<g>
		<rect x="39.166" y="373.751" transform="matrix(0.7071 -0.7071 0.7071 0.7071 -233.6185 199.498)" width="169.681" height="16"/>
	</g>
</g>
<g>
	<g>
		<path d="M429.67,308.08c-18.626-18.585-48.024-20.807-69.232-5.232l-73.112-73.112l140-140h25.6l28.8-57.6L449.614,0l-57.6,28.792
			v25.6l-140,140l-81.112-81.08c15.571-21.209,13.35-50.604-5.232-69.232l-8-8c-20.81-20.765-54.502-20.765-75.312,0l-5.656,5.656
			l21.656,21.656c10.016,10.246,9.83,26.672-0.416,36.688c-10.082,9.856-26.19,9.856-36.272,0L40.014,78.424l-5.656,5.656
			c-20.765,20.81-20.765,54.502,0,75.312l8,8c18.631,18.575,48.021,20.796,69.232,5.232l66.768,66.768
			c1.291,1.293,1.291,3.387,0,4.68l-8,8c-1.292,1.295-3.389,1.296-4.684,0.004c-0.001-0.001-0.003-0.003-0.004-0.004l-5.656-5.648
			l-144.4,144.4c-20.799,20.797-20.801,54.517-0.004,75.316c20.797,20.799,54.517,20.801,75.316,0.004l144.4-144.408l-5.656-5.656
			c-1.291-1.293-1.291-3.387,0-4.68l8-8c1.292-1.295,3.389-1.296,4.684-0.004c0.001,0.001,0.003,0.003,0.004,0.004l58.76,58.768
			c-15.571,21.209-13.35,50.604,5.232,69.232l16,16c20.81,20.765,54.502,20.765,75.312,0l5.664-5.664L381.67,420.08
			c-10.016-10.246-9.829-26.672,0.417-36.688c10.082-9.855,26.189-9.855,36.271,0l21.656,21.656l5.656-5.656
			c20.765-20.81,20.765-54.502,0-75.312L429.67,308.08z M257.67,211.392l5.656-5.656L408.014,61.048v-22.4l38.4-19.2l15.84,15.84
			l-19.2,38.4h-22.4l-144.64,144.736l-5.656,5.656l-18.344,18.344l-12.688-12.688L257.67,211.392z M112.014,150.424l-5.656,5.656
			c-14.56,14.523-38.128,14.523-52.688,0l-8-8c-12.34-12.377-14.438-31.659-5.048-46.4l9.736,9.728
			c16.15,16.607,42.705,16.978,59.312,0.828s16.978-42.705,0.828-59.312c-0.272-0.28-0.548-0.556-0.828-0.828l-9.736-9.744
			c14.739-9.392,34.021-7.297,46.4,5.04l8,8c14.523,14.56,14.523,38.128,0,52.688l-5.632,5.656l92,92l-12.688,12.688l-20-20l-24,24
			L112.014,150.424z M226.358,292.08l-8,8c-5.348,5.36-7.083,13.344-4.44,20.44L79.614,454.824
			c-14.549,14.549-38.139,14.549-52.688,0c-14.549-14.549-14.549-38.139,0-52.688l134.312-134.32
			c7.091,2.647,15.075,0.916,20.432-4.432l8-8c5.375-5.33,7.097-13.33,4.392-20.4l13.952-13.936l8.688,8.688l5.656,5.656
			l5.656,5.656l12.688,12.688l5.656,5.656l5.656,5.656l8.688,8.688l-13.952,13.952C239.679,285.041,231.714,286.757,226.358,292.08z
			 M439.406,381.808l-9.736-9.728c-16.15-16.607-42.705-16.977-59.312-0.827c-16.607,16.15-16.977,42.705-0.827,59.312
			c0.272,0.279,0.547,0.555,0.827,0.827l9.736,9.728c-14.739,9.392-34.021,7.297-46.4-5.04l-16-16
			c-14.523-14.56-14.523-38.128,0-52.688l5.632-5.656l-64-64l24-24l-20-20l12.688-12.688l84,84l5.656-5.656
			c14.56-14.523,38.128-14.523,52.688,0l16,16C446.707,347.771,448.805,367.064,439.406,381.808z"/>
	</g>
</g>
<g>
</g>
<g>
</g>
<g>
</g>
<g>
</g>
<g>
</g>
<g>
</g>
<g>
</g>
<g>
</g>
<g>
</g>
<g>
</g>
<g>
</g>
<g>
</g>
<g>
</g>
<g>
</g>
<g>
</g>
</svg>
