<svg id="Layer_1" enable-background="new 0 0 100 100"  viewBox="0 0 100 100"  xmlns="http://www.w3.org/2000/svg"><g><path d="m40.5 13.6h-35.5c-.8 0-1.5.7-1.5 1.5v11.5c0 .8.7 1.5 1.5 1.5h6.2v11.8 9.1 9.1 9.1 9.1 5.7c0 .7.4 1.3 1.1 1.4l9.9 2.7c.1 0 .3.1.4.1s.3 0 .4-.1l10.3-2.7c.7-.2 1.1-.8 1.1-1.4v-10-9.1-9.1-9.1-9.1-7.4h6.2c.8 0 1.5-.7 1.5-1.5v-11.6c-.1-.8-.7-1.5-1.6-1.5zm-9.1 48.1-17.2 3.7v-6.1l17.2-3.7zm0-9.1-17.2 3.7v-6.1l17.2-3.7zm-17.2 15.9 17.2-3.7v6.1l-17.2 3.7zm17.2-25.1-17.2 3.7v-6.1l17.2-3.7zm-8.8 39.9-8.4-2.3v-3.4l17.2-3.7v7.1zm8.8-49-17.2 3.7v-10h17.2zm7.6-9.2h-6.2-26.3v-8.5h32.5z"/><path d="m95.8 39-25.6-14.8c-.5-.3-1-.3-1.5 0l-25.6 14.8c-.5.3-.8.8-.8 1.3v29.6c0 .5.3 1 .8 1.3l25.6 14.8c.2.1.5.2.8.2s.5-.1.8-.2l25.6-14.8c.5-.3.8-.8.8-1.3v-29.6c-.2-.5-.5-1-.9-1.3zm-2.3 30-24.1 13.9-24.1-13.9v-27.8l24.1-13.9 24.1 13.9z"/><path d="m54.3 55.1c0 8.3 6.8 15.1 15.1 15.1s15.1-6.8 15.1-15.1-6.8-15.1-15.1-15.1-15.1 6.8-15.1 15.1zm27.2 0c0 6.7-5.4 12.1-12.1 12.1s-12.1-5.4-12.1-12.1 5.4-12.1 12.1-12.1 12.1 5.4 12.1 12.1z"/></g></svg>