<svg id="Layer_1" viewBox="0 0 512 512" xmlns="http://www.w3.org/2000/svg"><g><path d="m256 0c-141.2 0-256 114.8-256 256s114.8 256 256 256 256-114.8 256-256-114.8-256-256-256zm0 496c-132.3 0-240-107.7-240-240s107.7-240 240-240 240 107.7 240 240-107.7 240-240 240z"/><path d="m400.6 235.6-125.4-104.8c-11.1-9.3-27.2-9.3-38.3 0l-125.5 104.8c-3.3 2.8-5.4 6.7-5.8 11s.9 8.6 3.7 11.9l5.6 6.7c2.8 3.3 6.7 5.4 11 5.8s8.6-.9 11.9-3.7l11.7-9.8v102.8c0 15.4 12.5 27.9 27.9 27.9h39.8c8.8 0 16-7.2 16-16v-67.1h45.7v67.1c0 8.8 7.2 16 16 16h39.8c15.4 0 27.9-12.5 27.9-27.9v-102.7l11.7 9.8c3 2.5 6.7 3.8 10.4 3.8 4.7 0 9.3-2 12.5-5.8l5.6-6.7c2.8-3.3 4.1-7.6 3.7-11.9-.5-4.5-2.5-8.4-5.9-11.2zm-54.1 124.7c0 6.6-5.3 11.9-11.9 11.9h-39.8v-68.9c0-7.8-6.4-14.2-14.2-14.2h-49.2c-7.8 0-14.2 6.4-14.2 14.2v68.8h-39.8c-6.6 0-11.9-5.3-11.9-11.9v-116l90.5-75.6 90.5 75.6zm43.9-112-5.6 6.7c-.1.1-.3.1-.4 0l-24.8-20.8-96.6-80.6c-4.1-3.4-10-3.4-14.1 0l-96.5 80.7-24.8 20.7s-.1.1-.2.1-.2-.1-.2-.1l-5.6-6.7s-.1-.1-.1-.2.1-.2.1-.2l125.5-104.9c5.2-4.4 12.6-4.4 17.8 0l125.5 104.9s.1.1.1.2-.1.2-.1.2z"/></g></svg>