<svg viewBox="0 0 64 64" xmlns="http://www.w3.org/2000/svg"><g id="text"><text font-family="BlackStar-Regular, Black Star" font-size="15" transform="translate(19.01 -6.84)">bird</text></g><g id="outline"><path d="m55.2 27.27h-10.7v-3.93a2 2 0 0 1 .58-1.34l1.71-1.7a1 1 0 0 0 0-1.42 1 1 0 0 0 -1.41 0l-1.72 1.71a4 4 0 0 0 -1.16 2.8v3.93h-3.22l-2.13-10.63a3.25 3.25 0 0 0 -1.15-6.29h-19.08a3.25 3.25 0 0 0 -1.22 6.26l-1.59 6.93a16.79 16.79 0 0 0 -7.6 3 3.28 3.28 0 0 0 -1.38 2.41 3.33 3.33 0 0 0 1 2.65l.21.21a13.18 13.18 0 1 0 21.79 14.36h8.4a10.15 10.15 0 0 0 19.55-.07 5.73 5.73 0 0 0 4.81-5.62v-7.53a5.69 5.69 0 0 0 -5.69-5.73zm-38.28-14.87h19.08a1.25 1.25 0 1 1 0 2.5h-19.08a1.25 1.25 0 1 1 0-2.5zm.78 4.5h17.45l2.25 11.19-.43.76-3.06-3.06 1.09-1.12a1 1 0 0 0 -1.42-1.42l-3.55 3.56a1 1 0 0 0 0 1.41 1 1 0 0 0 .71.29 1 1 0 0 0 .7-.29l1-1 3.44 3.45-1.3 2.29h-3.1a16.89 16.89 0 0 0 -15.24-9.5h-.1zm-10 11.28a15 15 0 0 1 23.39 9.73 1.18 1.18 0 0 1 -.28 1 1.36 1.36 0 0 1 -1 .49h-.3a13.17 13.17 0 0 0 -21.72-9l-.2-.21a1.34 1.34 0 0 1 -.4-1.07 1.31 1.31 0 0 1 .48-.94zm17.21 19.4-.91-.87a1 1 0 1 0 -1.42 1.41l.88.88a11.16 11.16 0 0 1 -6.17 2.55v-1.24a1 1 0 0 0 -2 0v1.24a11.09 11.09 0 0 1 -6.15-2.55l.87-.87a1 1 0 0 0 0-1.41 1 1 0 0 0 -1.41 0l-.88.87a11.17 11.17 0 0 1 -2.56-6.17h1.25a1 1 0 0 0 0-2h-1.25a11.17 11.17 0 0 1 2.56-6.16l.88.87a1 1 0 0 0 1.41 0 1 1 0 0 0 0-1.41l-.87-.88a11.16 11.16 0 0 1 6.16-2.55v1.24a1 1 0 0 0 2 0v-1.25a11.16 11.16 0 0 1 6.17 2.55l-.88.88a1 1 0 1 0 1.41 1.41l.87-.87a11.09 11.09 0 0 1 2.56 6.16h-1.23a1 1 0 0 0 0 2h1.24a11.1 11.1 0 0 1 -2.56 6.17zm21.41 4a8.17 8.17 0 1 1 8.17-8.16 8.17 8.17 0 0 1 -8.2 8.18zm12.6-11.07a3.69 3.69 0 0 1 -2.49 3.49c0-.18 0-.37 0-.55a10.17 10.17 0 1 0 -20.33 0v.78h-7.17a13 13 0 0 0 .51-2.81h.3a3.36 3.36 0 0 0 2.57-1.2 3.26 3.26 0 0 0 .69-2.65 17.8 17.8 0 0 0 -.68-2.63h2.86a1 1 0 0 0 .87-.5l2.95-5.17h16.2a3.69 3.69 0 0 1 3.69 3.73zm-42.62-6.16a6.07 6.07 0 1 0 6.07 6.06 6.07 6.07 0 0 0 -6.07-6.06zm0 10.13a4.07 4.07 0 1 1 4.07-4.07 4.07 4.07 0 0 1 -4.07 4.07zm30-5.65a4.61 4.61 0 1 0 4.62 4.61 4.61 4.61 0 0 0 -4.63-4.61zm0 7.22a2.61 2.61 0 1 1 2.62-2.61 2.61 2.61 0 0 1 -2.63 2.61z"/></g></svg>