<svg viewBox="0 0 27 27" fill="none" xmlns="http://www.w3.org/2000/svg">
<path fill-rule="evenodd" clip-rule="evenodd" d="M11.8249 0.984938C9.37601 1.20361 6.99477 2.15204 4.9598 3.71921C3.96911 4.48212 2.68255 5.9159 1.93906 7.08549C1.61797 7.59063 0.992925 8.87062 0.769015 9.48148C0.51866 10.1646 0.251829 11.2084 0.120524 12.0183C-0.0401747 13.0097 -0.0401747 14.8919 0.120524 15.8832C0.34774 17.2847 0.707177 18.4176 1.32241 19.6719C1.9946 21.0421 2.69354 22.0134 3.81278 23.1327C4.93208 24.252 5.90339 24.9509 7.27366 25.6231C8.52792 26.2383 9.66085 26.5978 11.0623 26.825C12.0536 26.9857 13.9358 26.9857 14.9272 26.825C15.7371 26.6937 16.781 26.4269 17.464 26.1765C18.0749 25.9526 19.3549 25.3276 19.86 25.0065C21.4931 23.9684 23.0123 22.4492 24.0504 20.8161C24.3715 20.311 24.9965 19.031 25.2205 18.4201C25.6443 17.2637 25.9301 15.8367 25.9932 14.5629C26.0321 13.7756 25.9956 13.5922 25.7418 13.3032C25.2264 12.7162 24.2632 12.975 24.085 13.7484C24.0562 13.8737 24.032 14.1515 24.0313 14.3657C24.0295 14.9468 23.8893 15.9258 23.7 16.6789C22.7261 20.5544 19.5984 23.6822 15.7228 24.656C13.9455 25.1027 12.0156 25.1004 10.2499 24.6496C5.8979 23.5385 2.61512 19.833 2.04047 15.3827C1.93688 14.5807 1.93678 13.3223 2.04016 12.5188C2.61237 8.07313 5.89963 4.36261 10.2499 3.25196C11.0117 3.0575 11.9869 2.91612 12.5799 2.91424C13.3066 2.9119 13.6784 2.74459 13.8637 2.33654C14.1011 1.81381 13.8985 1.27043 13.3761 1.02857C13.1544 0.925897 12.6462 0.911607 11.8249 0.984938ZM24.3606 4.23248C24.2767 4.25358 24.1508 4.30108 24.0809 4.33805C24.011 4.37502 21.2878 7.06591 18.0293 10.3178L12.1048 16.2304L10.63 14.6249C7.89977 11.6526 7.75601 11.5037 7.51119 11.3954C7.05 11.1914 6.50245 11.3849 6.28816 11.8276C6.15207 12.1088 6.1481 12.469 6.27834 12.7196C6.36515 12.8867 7.82812 14.4999 10.5941 17.4785C11.5218 18.4776 11.7152 18.6271 12.0794 18.6271C12.5075 18.6271 12.4259 18.7037 19.0543 12.0838C25.91 5.237 25.599 5.57279 25.5431 5.0764C25.4802 4.51874 24.8919 4.09888 24.3606 4.23248Z" fill="#FF7F00"/>
</svg>
