<svg viewBox="0 0 33 22" fill="none" xmlns="http://www.w3.org/2000/svg">
<path fill-rule="evenodd" clip-rule="evenodd" d="M1.41267 0.0391187C0.844275 0.215214 0.320833 0.693061 0.119669 1.21951C0.00389269 1.5224 0 1.8405 0 11.0059C0 20.1713 0.00389269 20.4894 0.119669 20.7923C0.271484 21.1896 0.658242 21.6148 1.06484 21.8314L1.38128 22H16.0417H30.7021L31.0185 21.8314C31.4251 21.6148 31.8119 21.1896 31.9637 20.7923C32.0794 20.4894 32.0833 20.1713 32.0833 11.0059C32.0833 1.8405 32.0794 1.5224 31.9637 1.21951C31.8119 0.822202 31.4251 0.397013 31.0185 0.180426L30.7021 0.0118077L16.1358 0.00116216C8.12443 -0.00473093 1.499 0.012378 1.41267 0.0391187ZM30.5256 1.37121C30.8114 1.56258 30.8276 1.67461 30.8276 3.45882V5.1445H16.0417H1.25571L1.23675 3.71875C1.21364 1.9782 1.24133 1.69115 1.45285 1.47767C1.53962 1.39003 1.6721 1.3062 1.74713 1.29124C1.82216 1.27635 8.29709 1.26754 16.1358 1.27166C28.4852 1.27813 30.4065 1.29143 30.5256 1.37121ZM30.8276 14.6558C30.8276 20.6817 30.8397 20.4615 30.4973 20.6465C30.2643 20.7723 1.82486 20.7754 1.59186 20.6497C1.23989 20.4595 1.25715 20.7477 1.23832 14.7471C1.22877 11.699 1.23499 9.16821 1.25213 9.12316C1.27749 9.05649 4.02442 9.04427 16.0554 9.05726L30.8276 9.07322V14.6558ZM5.39119 13.0826C5.01203 13.3925 5.04933 13.9728 5.46057 14.1619C5.58451 14.2189 7.09827 14.2376 11.5859 14.2376H17.5465L17.7445 14.0592C17.9093 13.9105 17.9424 13.8344 17.9424 13.6039C17.9424 13.3735 17.9093 13.2974 17.7445 13.1487L17.5465 12.9703L11.5358 12.9717C5.93554 12.973 5.51595 12.9805 5.39119 13.0826ZM5.39119 15.6806C5.01203 15.9906 5.04933 16.5708 5.46057 16.7599C5.58168 16.8156 6.51901 16.8356 9.00782 16.8356H12.3905L12.5755 16.6785C12.6774 16.592 12.7783 16.4321 12.7999 16.3232C12.85 16.0703 12.6978 15.7368 12.4883 15.6405C12.377 15.5893 11.3421 15.5687 8.92827 15.5697C5.79861 15.571 5.51438 15.5799 5.39119 15.6806Z" fill="#FF7F00"/>
</svg>
